<svg width="17" height="17" viewBox="0 0 17 17" fill="none" xmlns="http://www.w3.org/2000/svg">
<path d="M8.49998 1.37516C6.97335 1.37516 5.48101 1.82785 4.21167 2.676C2.94233 3.52415 1.953 4.72965 1.36878 6.14007C0.784568 7.55048 0.631711 9.10247 0.929541 10.5998C1.22737 12.097 1.96251 13.4724 3.042 14.5519C4.12148 15.6314 5.49683 16.3665 6.99412 16.6643C8.49142 16.9622 10.0434 16.8093 11.4538 16.2251C12.8642 15.6409 14.0697 14.6516 14.9179 13.3822C15.766 12.1129 16.2187 10.6205 16.2187 9.0939C16.2164 7.04749 15.4024 5.08556 13.9554 3.63853C12.5083 2.19149 10.5464 1.37751 8.49998 1.37516ZM8.49998 15.6252C7.20822 15.6252 5.94547 15.2421 4.87141 14.5244C3.79735 13.8068 2.96022 12.7867 2.46589 11.5933C1.97155 10.3999 1.84221 9.08666 2.09422 7.81972C2.34623 6.55278 2.96827 5.38903 3.88169 4.47561C4.7951 3.5622 5.95886 2.94016 7.22579 2.68815C8.49273 2.43614 9.80595 2.56548 10.9994 3.05982C12.1928 3.55415 13.2128 4.39128 13.9305 5.46534C14.6482 6.53939 15.0312 7.80214 15.0312 9.0939C15.0292 10.8255 14.3404 12.4855 13.116 13.7099C11.8916 14.9343 10.2315 15.6231 8.49998 15.6252ZM9.09373 4.70906V9.0939C9.09369 9.25136 9.03112 9.40236 8.91976 9.51369L6.72763 11.7064C6.67247 11.7616 6.60698 11.8053 6.5349 11.8352C6.46282 11.865 6.38557 11.8804 6.30756 11.8804C6.22954 11.8804 6.15229 11.865 6.08021 11.8352C6.00813 11.8053 5.94264 11.7616 5.88748 11.7064C5.83231 11.6512 5.78855 11.5857 5.7587 11.5137C5.72884 11.4416 5.71348 11.3643 5.71348 11.2863C5.71348 11.2083 5.72884 11.1311 5.7587 11.059C5.78855 10.9869 5.83231 10.9214 5.88748 10.8662L7.90623 8.8475V4.70906C7.90623 4.55159 7.96878 4.40057 8.08013 4.28922C8.19148 4.17787 8.34251 4.11531 8.49998 4.11531C8.65745 4.11531 8.80847 4.17787 8.91982 4.28922C9.03117 4.40057 9.09373 4.55159 9.09373 4.70906ZM16.6747 4.13016C16.5739 4.25105 16.4292 4.32697 16.2725 4.34123C16.1157 4.35548 15.9597 4.30689 15.8387 4.20616L12.2762 1.23741C12.1596 1.13535 12.0874 0.99171 12.0753 0.837184C12.0631 0.682659 12.1118 0.529497 12.211 0.41042C12.3103 0.291342 12.4521 0.21579 12.6063 0.199905C12.7605 0.18402 12.9148 0.229062 13.0362 0.325407L16.5987 3.29416C16.7196 3.39496 16.7955 3.53966 16.8098 3.69642C16.824 3.85319 16.7755 4.0092 16.6747 4.13016ZM0.781227 4.34391C0.659246 4.34385 0.540243 4.30623 0.440399 4.23615C0.340555 4.16608 0.264717 4.06695 0.223197 3.95225C0.181678 3.83756 0.176493 3.71285 0.208346 3.59511C0.240199 3.47736 0.307546 3.37228 0.401227 3.29416L3.96373 0.325407C4.08515 0.229062 4.23944 0.18402 4.39363 0.199905C4.54782 0.21579 4.68968 0.291342 4.78891 0.41042C4.88814 0.529497 4.93687 0.682659 4.92469 0.837184C4.91251 0.99171 4.84039 1.13535 4.72373 1.23741L1.16123 4.20616C1.05457 4.2951 0.920106 4.34384 0.781227 4.34391Z" fill="#43AAFF"/>
</svg>
