<svg width="28" height="28" viewBox="0 0 28 28" fill="none" xmlns="http://www.w3.org/2000/svg">
<path d="M13.2079 0.0161927C5.81314 0.368289 -0.0223685 6.5267 6.44603e-05 13.9298C0.00689479 16.1847 0.551245 18.3129 1.51151 20.1934L0.0371625 27.35C-0.0425916 27.7371 0.306559 28.0761 0.691133 27.985L7.7038 26.3236C9.50547 27.2211 11.5291 27.7394 13.6708 27.7721C21.229 27.8875 27.5312 21.8862 27.7668 14.3308C28.0193 6.23199 21.3351 -0.370859 13.2079 0.0161927ZM21.5755 21.5756C19.5218 23.6293 16.7912 24.7603 13.8869 24.7603C12.1862 24.7603 10.5581 24.3788 9.04744 23.6263L8.07083 23.1398L3.77134 24.1585L4.67636 19.7651L4.19523 18.823C3.41101 17.2871 3.01338 15.6264 3.01338 13.8868C3.01338 10.9824 4.1444 8.25189 6.19812 6.19811C8.23349 4.16274 11.0086 3.0133 13.8871 3.0133C16.7914 3.01337 19.5219 4.14439 21.5756 6.19804C23.6293 8.25176 24.7603 10.9823 24.7604 13.8866C24.7603 16.7652 23.6109 19.5403 21.5755 21.5756Z" fill="#7AD06D"/>
<path d="M20.6264 16.8984L17.9365 16.1261C17.5829 16.0245 17.2021 16.1249 16.9444 16.3874L16.2866 17.0576C16.0092 17.3402 15.5884 17.431 15.2213 17.2825C13.9488 16.7675 11.2721 14.3876 10.5886 13.1972C10.3913 12.8538 10.424 12.4245 10.6661 12.1112L11.2404 11.3682C11.4654 11.0771 11.5129 10.6862 11.3641 10.3497L10.2324 7.79011C9.9613 7.17706 9.17789 6.9986 8.66608 7.43145C7.91535 8.06641 7.02459 9.03129 6.91631 10.1002C6.7254 11.9849 7.53365 14.3606 10.5901 17.2133C14.1211 20.5089 16.9487 20.9443 18.7898 20.4983C19.834 20.2454 20.6685 19.2315 21.1952 18.4012C21.5543 17.8352 21.2707 17.0834 20.6264 16.8984Z" fill="#7AD06D"/>
</svg>
